# File created by Blade
# Date/Time:  Tue Sep 30 19:15:05 2014
# Frame Rate: 120.000 fps
#------------------------------------------------------
:FULLY-SPECIFIED
:DEGREES
2752
root -2.041896 33.972630 -4.040992 33.290175 -23.592991 -30.465334
Spine -15.233830 9.970365 15.204982
Head -9.709408 -2.235396 18.095154
LeftShoulder 24.071751 11.049930 22.480450
LeftArm -9.273912 -26.468528 -70.731572
LeftForeArm -134.778974 -6.084262 6.004086
LeftHand -0.000063 27.086804 -7.912171
LeftHandThumb1 30.357831 13.997178 22.438692
RightShoulder -8.830303 -21.394040 -27.397046
RightArm 0.312627 -22.965311 80.692414
RightForeArm 80.843068 -40.688983 5.999218
RightHand -0.000029 -13.333486 26.432402
RightHandThumb1 30.482666 -12.916435 -20.793814
LeftUpLeg -27.793019 14.063060 17.148122
LeftLeg 17.370199 0.000000 0.000000
LeftFoot -15.008567 29.100679 2.089687
LeftToeBase 4.396200 -0.000000 -0.000000
RightUpLeg -33.622751 -3.852913 -37.709267
RightLeg 105.807999 0.000000 0.000000
RightFoot 28.775217 -17.852785 -6.732590
RightToeBase 14.812500 -0.000000 -0.000000
2753
root -2.036096 33.970933 -4.025392 33.282801 -23.568381 -30.292303
Spine -15.273987 9.882668 15.243354
Head -9.627586 -1.902415 18.078712
LeftShoulder 24.032093 11.054090 22.462213
LeftArm -9.234805 -26.783730 -70.334910
LeftForeArm -134.528999 -6.452968 6.308707
LeftHand -0.000054 26.972194 -7.696898
LeftHandThumb1 30.357831 13.997178 22.438692
RightShoulder -8.888434 -21.390206 -27.595882
RightArm 0.179860 -22.893899 80.980621
RightForeArm 81.331613 -40.823103 5.691588
RightHand 0.000007 -13.226863 26.269822
RightHandThumb1 30.482666 -12.916435 -20.793814
LeftUpLeg -27.800338 13.961105 16.966792
LeftLeg 17.215401 -0.000000 -0.000000
LeftFoot -14.859481 29.119678 2.451862
LeftToeBase 4.432800 -0.000000 -0.000000
RightUpLeg -33.435391 -3.571803 -37.623331
RightLeg 106.024399 -0.000000 0.000000
RightFoot 28.423358 -18.053182 -6.481397
RightToeBase 15.786300 -0.000000 -0.000000
2754
root -2.022396 33.968934 -4.014692 33.294240 -23.567456 -30.157054
Spine -15.289292 9.867334 15.336995
Head -9.538261 -1.604093 17.979027
LeftShoulder 23.848769 10.970735 22.398260
LeftArm -9.263589 -26.946649 -69.979618
LeftForeArm -134.303953 -6.962581 6.747359
LeftHand 0.000037 26.956489 -7.255572
LeftHandThumb1 30.357831 13.997178 22.438692
RightShoulder -8.941624 -21.355660 -27.833540
RightArm 0.017126 -22.854810 81.282495
RightForeArm 81.800665 -40.842335 5.383209
RightHand 0.000029 -13.136582 25.977957
RightHandThumb1 30.482666 -12.916435 -20.793814
LeftUpLeg -27.810976 13.853961 16.817542
LeftLeg 17.061800 -0.000000 -0.000000
LeftFoot -14.684085 29.147871 2.789876
LeftToeBase 4.414200 -0.000000 -0.000000
RightUpLeg -33.299012 -3.221985 -37.505424
RightLeg 106.246902 -0.000000 -0.000000
RightFoot 28.415263 -17.853454 -6.802646
RightToeBase 15.377100 0.000000 0.000000
2755
root -2.011096 33.967232 -4.000192 33.304368 -23.603373 -30.025060
Spine -15.301649 9.900994 15.395953
Head -9.477180 -1.262937 17.967293
LeftShoulder 23.777629 10.984130 22.305632
LeftArm -9.305036 -27.324514 -69.526026
LeftForeArm -134.061771 -7.763416 7.448028
LeftHand -0.000040 27.031656 -6.740135
LeftHandThumb1 30.357831 13.997178 22.438692
RightShoulder -9.006360 -21.360973 -28.045598
RightArm -0.192370 -22.848177 81.618024
RightForeArm 82.237209 -40.879807 5.098366
RightHand 0.000036 -13.020952 25.809602
RightHandThumb1 30.482666 -12.916435 -20.793814
LeftUpLeg -27.766120 13.915669 16.621076
LeftLeg 16.818001 -0.000000 -0.000000
LeftFoot -14.556158 28.963874 2.932321
LeftToeBase 4.133100 -0.000000 0.000000
RightUpLeg -33.166435 -2.828977 -37.405259
RightLeg 106.409599 -0.000000 0.000000
RightFoot 28.528867 -17.657463 -7.290006
RightToeBase 14.905100 -0.000000 -0.000000
2756
root -1.999496 33.961732 -3.984892 33.260421 -23.600849 -29.841170
Spine -15.299101 9.893929 15.430890
Head -9.367020 -0.996988 17.852423
LeftShoulder 23.513785 10.886350 22.244900
LeftArm -9.396406 -27.475234 -69.142858
LeftForeArm -133.840796 -8.689641 8.255391
LeftHand 0.000057 26.918700 -6.590752
LeftHandThumb1 30.357831 13.997178 22.438692
RightShoulder -9.016620 -21.335505 -28.243070
RightArm -0.421015 -22.849343 81.953479
RightForeArm 82.739662 -40.904005 4.768592
RightHand -0.000008 -13.027247 25.557613
RightHandThumb1 30.482666 -12.916435 -20.793814
LeftUpLeg -27.749122 13.770910 16.443072
LeftLeg 16.684500 0.000000 0.000000
LeftFoot -14.449007 28.981393 3.169704
LeftToeBase 3.969600 0.000000 0.000000
RightUpLeg -32.973887 -2.370604 -37.349777
RightLeg 106.603699 -0.000000 0.000000
RightFoot 28.314180 -17.856093 -7.215016
RightToeBase 15.136600 -0.000000 -0.000000
